HIERARCHY
ROOT Hips
{
	OFFSET -285.066589 92.472481 297.089996
	CHANNELS 6 Xposition Yposition Zposition Xrotation Yrotation Zrotation 
	JOINT RightUpLeg
	{
		OFFSET 0.103457 1.857824 10.548504
		CHANNELS 3 Xrotation Yrotation Zrotation
		JOINT RightLeg
		{
			OFFSET 43.500000 -0.000038 -0.000017
			CHANNELS 3 Xrotation Yrotation Zrotation
			JOINT RightFoot
			{
				OFFSET 42.372200 0.000011 0.000019
				CHANNELS 3 Xrotation Yrotation Zrotation
				JOINT RightToe
				{
					OFFSET 17.300011 0.000002 -0.000008
					CHANNELS 3 Xrotation Yrotation Zrotation
					End Site
					{
						OFFSET 0.000000 0.000000 0.000000
					}
				}
			}
		}
	}
	JOINT LeftUpLeg
	{
		OFFSET 0.103457 1.857822 -10.548492
		CHANNELS 3 Xrotation Yrotation Zrotation
		JOINT LeftLeg
		{
			OFFSET 43.500038 -0.000027 0.000036
			CHANNELS 3 Xrotation Yrotation Zrotation
			JOINT LeftFoot
			{
				OFFSET 42.372261 0.000015 0.000010
				CHANNELS 3 Xrotation Yrotation Zrotation
				JOINT LeftToe
				{
					OFFSET 17.299988 -0.000006 0.000008
					CHANNELS 3 Xrotation Yrotation Zrotation
					End Site
					{
						OFFSET 0.000000 0.000000 0.000000
					}
				}
			}
		}
	}
	JOINT Spine
	{
		OFFSET 6.901965 -2.603737 0.000006
		CHANNELS 3 Xrotation Yrotation Zrotation
		JOINT Spine1
		{
			OFFSET 12.588104 -0.000005 0.000007
			CHANNELS 3 Xrotation Yrotation Zrotation
			JOINT Spine2
			{
				OFFSET 12.343202 0.000026 -0.000008
				CHANNELS 3 Xrotation Yrotation Zrotation
				JOINT Neck
				{
					OFFSET 25.832890 -0.000029 -0.000007
					CHANNELS 3 Xrotation Yrotation Zrotation
					JOINT Head
					{
						OFFSET 11.766619 0.000021 0.000012
						CHANNELS 3 Xrotation Yrotation Zrotation
						End Site
						{
							OFFSET 0.000000 0.000000 0.000000
						}
					}
				}
				JOINT RightShoulder
				{
					OFFSET 19.745909 -1.480377 6.000106
					CHANNELS 3 Xrotation Yrotation Zrotation
					JOINT RightArm
					{
						OFFSET 11.284110 -0.000009 -0.000020
						CHANNELS 3 Xrotation Yrotation Zrotation
						JOINT RightForeArm
						{
							OFFSET 33.000053 0.000014 0.000021
							CHANNELS 3 Xrotation Yrotation Zrotation
							JOINT RightHand
							{
								OFFSET 25.200008 0.000006 -0.000004
								CHANNELS 3 Xrotation Yrotation Zrotation
								End Site
								{
									OFFSET 0.000000 0.000000 0.000000
								}
							}
						}
					}
				}
				JOINT LeftShoulder
				{
					OFFSET 19.746101 -1.480381 -6.000081
					CHANNELS 3 Xrotation Yrotation Zrotation
					JOINT LeftArm
					{
						OFFSET 11.284131 -0.000022 0.000003
						CHANNELS 3 Xrotation Yrotation Zrotation
						JOINT LeftForeArm
						{
							OFFSET 33.000095 0.000014 0.000005
							CHANNELS 3 Xrotation Yrotation Zrotation
							JOINT LeftHand
							{
								OFFSET 25.199774 0.000153 0.000423
								CHANNELS 3 Xrotation Yrotation Zrotation
								End Site
								{
									OFFSET 0.000000 0.000000 0.000000
								}
							}
						}
					}
				}
			}
		}
	}
}
MOTION
Frames: 7
Frame Time: 0.033333
140.460693 83.495712 -389.703400 93.411996 -1.198302 -20.712036 153.586352 -8.033404 178.175142 -56.933547 2.631121 -0.572873 98.986913 -0.246327 -7.113228 21.454558 0.003108 0.000018 159.476612 18.007293 -176.926379 -67.896322 2.353278 4.331764 82.657761 -1.745684 5.633964 21.454551 -0.003091 -0.000001 11.937269 -1.398130 2.278295 13.808034 -3.058305 4.374518 13.490464 -3.031994 4.392859 8.582126 -6.934098 23.356764 -22.307610 -15.882078 30.421977 -176.916011 -69.555300 -4.499026 -15.866330 47.004901 23.693450 -37.889788 -20.537879 1.790892 5.197199 -8.640833 2.826867 143.269105 85.512227 -35.322016 -23.060027 -56.075194 -20.440197 -48.866291 22.606120 -2.222658 1.713533 16.851318 -1.846529 
137.988998 83.384438 -389.808502 93.056096 -1.560491 -18.696045 155.013506 -7.412996 178.628366 -57.424631 2.697169 -0.067501 99.942654 -0.475132 -6.277407 21.454560 0.003109 0.000018 156.917299 17.107500 -177.958120 -71.243436 3.099618 1.259496 83.137110 0.263751 5.333081 21.454551 -0.003093 -0.000000 11.899624 -1.295054 2.049223 13.741968 -2.824442 3.930894 13.424266 -2.800806 3.947841 8.777973 -6.830222 23.102601 -22.301835 -15.486849 30.026068 -177.939938 -69.618540 -3.443116 -16.894427 46.384750 21.448882 -39.241978 -21.083259 1.861939 5.196326 -10.166591 3.857573 149.386974 85.145500 -29.196057 -22.982594 -57.485461 -21.633554 -47.085422 22.383355 -2.149992 3.031089 16.654134 -0.424470 
135.511002 83.351883 -390.064789 92.601663 -1.639607 -17.079954 156.865772 -6.953598 178.483334 -57.376786 2.805926 0.543118 100.641103 -0.809615 -5.544818 21.454558 0.003106 0.000017 154.158053 16.351502 -177.301684 -72.299267 3.418013 0.318237 85.069617 0.825554 5.411341 21.454545 -0.003096 -0.000002 11.898772 -1.253136 1.865632 13.746081 -2.719142 3.569783 13.428249 -2.697682 3.586108 8.849454 -6.464506 22.840839 -22.181173 -15.216500 29.659854 -179.518053 -69.772670 -1.815922 -17.785191 45.945146 19.212649 -41.413049 -21.805536 1.969123 4.664672 -12.056705 6.419918 155.408947 84.705978 -23.160893 -22.072255 -58.491910 -24.331055 -44.784283 22.167193 -2.063983 3.795083 16.594197 0.833133 
132.986404 83.589119 -390.476990 92.398164 -1.714782 -15.756956 158.989605 -6.796599 178.369953 -56.501370 2.799090 1.096680 100.851110 -1.142631 -5.019978 21.454557 0.003109 0.000017 151.319371 15.193208 -175.638752 -70.901154 3.376538 0.605230 86.147953 0.636298 5.746946 21.454553 -0.003093 -0.000000 11.876502 -1.189884 1.706462 13.706900 -2.573628 3.260404 13.389000 -2.554037 3.275865 8.873487 -6.162338 22.739281 -22.886053 -15.197097 29.699903 -179.748053 -70.131214 -1.585937 -18.936676 45.968584 16.933311 -44.213256 -22.559196 2.101142 3.842770 -13.866601 9.036275 159.912104 84.425250 -18.639895 -20.076340 -59.255204 -27.774121 -43.089457 21.461086 -1.966670 5.280597 15.799636 1.415747 
130.333496 84.148178 -391.053497 92.336016 -1.604793 -14.639039 161.424117 -6.594802 177.816011 -54.742692 3.175635 1.692646 100.081300 -1.576366 -4.820682 21.454560 0.003110 0.000018 148.786122 13.720309 -174.517699 -66.889750 3.968741 1.728016 87.155133 -0.199486 5.845147 21.454555 -0.003088 0.000000 11.828342 -1.142564 1.525945 13.615705 -2.456819 2.907178 13.297722 -2.439358 2.921941 8.462483 -6.456237 22.524639 -23.007950 -14.464107 29.133342 -179.136956 -70.592225 -2.224122 -19.902871 46.163992 14.952780 -47.856410 -23.125400 2.253848 2.869096 -15.406035 12.157172 163.874994 84.494692 -14.644067 -17.509301 -60.085420 -31.591753 -41.902138 20.622725 -1.877271 5.827911 14.687690 1.566763 
127.526703 84.873558 -391.902313 92.322315 -1.316132 -13.503052 164.044970 -6.404908 178.033744 -52.538242 2.961523 2.040141 98.496450 -1.862928 -4.671476 21.454562 0.003111 0.000018 146.968636 12.404009 -173.874282 -60.422975 4.773470 2.205858 86.874528 -0.622139 5.409397 21.454553 -0.003089 0.000000 11.752740 -1.119370 1.279120 13.470336 -2.380071 2.419457 13.152257 -2.365557 2.433774 8.181556 -6.573262 22.512052 -22.855626 -13.980116 28.857740 -178.658938 -70.858691 -2.720953 -19.847710 46.131344 13.687066 -52.198710 -23.299169 2.413173 1.796231 -15.937468 14.352872 166.599119 84.705575 -11.889912 -14.467369 -60.846931 -35.824506 -40.973683 19.717131 -1.791967 5.150191 12.634481 0.642321 
124.516296 85.801567 -392.947113 92.439131 -1.250624 -12.021972 166.817781 -6.470092 178.825527 -49.817187 2.649021 2.249516 96.232946 -2.068705 -4.433860 21.454555 0.003106 0.000017 146.468434 10.595092 -172.602118 -51.452010 4.240011 2.082182 84.825274 -0.474410 5.225164 21.454553 -0.003091 0.000000 11.630590 -0.986477 0.995654 13.233473 -2.080356 1.872035 12.915315 -2.069150 1.884553 8.524128 -6.791039 22.401431 -23.672304 -13.799529 28.819980 -179.590084 -71.062811 -1.764889 -18.970729 46.050525 13.450749 -56.120239 -23.274901 2.553820 0.975305 -16.378228 15.430220 168.866879 85.041838 -9.593098 -10.366877 -61.207641 -40.948186 -40.744575 18.776211 -1.724123 4.123392 10.605301 -0.287110 
